<svg xmlns="http://www.w3.org/2000/svg" xmlns:xlink="http://www.w3.org/1999/xlink" width="129" zoomAndPan="magnify" viewBox="0 0 96.75 30.000001" height="40" preserveAspectRatio="xMidYMid meet" version="1.0"><defs><clipPath id="30f5f71bb0"><path d="M 21.164062 0.867188 L 32.0625 0.867188 L 32.0625 28.449219 L 21.164062 28.449219 Z M 21.164062 0.867188 " clip-rule="nonzero"/></clipPath><clipPath id="c067cb3f8d"><path d="M 33.167969 0.867188 L 44.191406 0.867188 L 44.191406 28.421875 L 33.167969 28.421875 Z M 33.167969 0.867188 " clip-rule="nonzero"/></clipPath></defs><g clip-path="url(#30f5f71bb0)"><path fill="#000000" d="M 24.53125 5.222656 C 23.882812 5.597656 23.4375 5.949219 22.933594 6.125 C 21.4375 6.640625 21.164062 7.675781 21.203125 9.167969 C 21.3125 13.242188 21.253906 17.328125 21.226562 21.40625 C 21.222656 22 21.398438 22.359375 21.921875 22.632812 C 22.753906 23.0625 23.558594 23.550781 24.515625 24.09375 C 24.515625 21.15625 24.515625 18.34375 24.515625 15.359375 C 25.984375 16.199219 27.308594 16.925781 28.589844 17.722656 C 28.773438 17.839844 28.824219 18.277344 28.828125 18.566406 C 28.847656 21.007812 28.851562 23.449219 28.824219 25.890625 C 28.820312 26.417969 28.96875 26.738281 29.441406 26.980469 C 30.296875 27.421875 31.121094 27.921875 32.054688 28.449219 C 32.054688 19.21875 32.054688 10.132812 32.054688 0.867188 C 30.984375 1.492188 29.992188 2.035156 29.042969 2.652344 C 28.878906 2.757812 28.847656 3.160156 28.847656 3.425781 C 28.832031 6.585938 28.835938 9.746094 28.835938 12.90625 C 28.835938 13.210938 28.835938 13.511719 28.835938 13.988281 C 27.382812 13.152344 26.0625 12.421875 24.785156 11.625 C 24.597656 11.507812 24.546875 11.074219 24.542969 10.785156 C 24.523438 8.984375 24.53125 7.183594 24.53125 5.222656 Z M 24.53125 5.222656 " fill-opacity="1" fill-rule="nonzero"/></g><g clip-path="url(#c067cb3f8d)"><path fill="#000000" d="M 43.152344 14.027344 C 41.113281 15.140625 39.117188 16.328125 37.121094 17.515625 C 36.867188 17.667969 36.5625 17.992188 36.550781 18.25 C 36.5 19.683594 36.527344 21.121094 36.527344 22.707031 C 36.527344 22.707031 36.53125 22.707031 36.53125 22.707031 C 36.523438 23.675781 36.523438 24.648438 36.523438 25.621094 C 36.523438 25.953125 36.523438 26.285156 36.523438 26.617188 C 35.632812 27.132812 34.742188 27.648438 33.847656 28.164062 C 33.691406 28.257812 33.496094 28.289062 33.253906 28.367188 C 33.253906 24.496094 33.285156 20.703125 33.234375 16.914062 C 33.21875 16.089844 33.519531 15.695312 34.195312 15.324219 C 36.230469 14.203125 38.226562 13.019531 40.230469 11.84375 C 40.460938 11.710938 40.734375 11.5 40.796875 11.273438 C 41.167969 9.914062 40.78125 9.027344 39.574219 8.324219 C 38.808594 7.875 38.039062 7.425781 37.265625 6.992188 C 37.058594 6.871094 36.832031 6.789062 36.523438 6.648438 C 36.523438 8.761719 36.53125 10.742188 36.515625 12.722656 C 36.515625 12.992188 36.496094 13.394531 36.332031 13.503906 C 35.371094 14.132812 34.367188 14.691406 33.285156 15.324219 L 33.285156 0.945312 C 33.460938 1.007812 33.601562 1.035156 33.71875 1.101562 C 37.042969 3.023438 40.375 4.941406 43.679688 6.890625 C 43.910156 7.027344 44.097656 7.429688 44.101562 7.710938 C 44.144531 9.234375 44.066406 10.757812 44.144531 12.277344 C 44.191406 13.144531 43.902344 13.617188 43.152344 14.027344 Z M 43.152344 14.027344 " fill-opacity="1" fill-rule="nonzero"/></g><path fill="#000000" d="M 42.671875 25.757812 C 42.46875 25.757812 42.253906 25.734375 42.035156 25.691406 C 41.617188 25.605469 41.238281 25.441406 40.90625 25.203125 C 40.574219 24.960938 40.3125 24.664062 40.117188 24.3125 C 40.03125 24.148438 40.011719 23.976562 40.066406 23.800781 C 40.117188 23.621094 40.222656 23.488281 40.386719 23.398438 C 40.554688 23.300781 40.722656 23.28125 40.902344 23.335938 C 41.082031 23.390625 41.214844 23.496094 41.304688 23.65625 C 41.519531 24.035156 41.859375 24.269531 42.320312 24.367188 C 42.542969 24.414062 42.765625 24.414062 42.984375 24.367188 C 43.210938 24.316406 43.40625 24.226562 43.574219 24.09375 C 43.742188 23.960938 43.851562 23.785156 43.898438 23.574219 C 43.941406 23.378906 43.925781 23.179688 43.855469 22.960938 C 43.789062 22.742188 43.644531 22.589844 43.425781 22.5 C 43.054688 22.351562 42.703125 22.195312 42.375 22.03125 C 42.042969 21.863281 41.769531 21.71875 41.550781 21.59375 C 41.332031 21.464844 41.195312 21.378906 41.140625 21.335938 C 40.734375 21.015625 40.433594 20.636719 40.234375 20.203125 C 40.035156 19.765625 39.984375 19.316406 40.078125 18.859375 C 40.230469 18.171875 40.625 17.652344 41.261719 17.300781 C 41.5625 17.140625 41.886719 17.035156 42.230469 16.984375 C 42.570312 16.933594 42.917969 16.949219 43.261719 17.023438 C 43.679688 17.113281 44.054688 17.277344 44.390625 17.511719 C 44.726562 17.75 44.992188 18.042969 45.1875 18.394531 C 45.273438 18.558594 45.292969 18.730469 45.242188 18.910156 C 45.191406 19.085938 45.082031 19.226562 44.917969 19.320312 C 44.753906 19.410156 44.582031 19.429688 44.402344 19.378906 C 44.222656 19.324219 44.089844 19.21875 44.003906 19.050781 C 43.792969 18.675781 43.449219 18.441406 42.984375 18.34375 C 42.617188 18.277344 42.285156 18.3125 41.976562 18.457031 C 41.671875 18.597656 41.480469 18.824219 41.40625 19.132812 C 41.367188 19.328125 41.382812 19.527344 41.457031 19.738281 C 41.535156 19.945312 41.675781 20.101562 41.882812 20.203125 L 44.082031 21.316406 C 44.441406 21.496094 44.710938 21.726562 44.894531 22.003906 C 45.082031 22.28125 45.199219 22.582031 45.246094 22.90625 C 45.292969 23.226562 45.285156 23.542969 45.21875 23.851562 C 45.148438 24.179688 45.011719 24.480469 44.808594 24.75 C 44.609375 25.015625 44.351562 25.234375 44.042969 25.40625 C 43.625 25.640625 43.167969 25.757812 42.671875 25.757812 Z M 42.671875 25.757812 " fill-opacity="1" fill-rule="nonzero"/><path fill="#000000" d="M 49.304688 25.734375 L 49.304688 18.28125 L 46.976562 18.28125 C 46.785156 18.28125 46.621094 18.214844 46.492188 18.085938 C 46.363281 17.953125 46.296875 17.792969 46.296875 17.597656 C 46.296875 17.414062 46.363281 17.257812 46.492188 17.128906 C 46.621094 16.996094 46.785156 16.933594 46.976562 16.933594 L 52.917969 16.933594 C 53.109375 16.933594 53.269531 16.996094 53.402344 17.128906 C 53.53125 17.257812 53.597656 17.414062 53.597656 17.597656 C 53.597656 17.792969 53.53125 17.953125 53.402344 18.085938 C 53.269531 18.214844 53.109375 18.28125 52.917969 18.28125 L 50.664062 18.28125 L 50.664062 25.734375 Z M 49.304688 25.734375 " fill-opacity="1" fill-rule="nonzero"/><path fill="#000000" d="M 58.148438 25.726562 C 57.660156 25.726562 57.203125 25.636719 56.777344 25.460938 C 56.351562 25.285156 55.976562 25.046875 55.65625 24.742188 C 55.332031 24.433594 55.082031 24.082031 54.898438 23.675781 C 54.714844 23.273438 54.625 22.839844 54.625 22.375 L 54.625 19.855469 C 54.625 19.394531 54.714844 18.960938 54.898438 18.558594 C 55.082031 18.152344 55.332031 17.796875 55.65625 17.492188 C 55.976562 17.1875 56.351562 16.945312 56.777344 16.773438 C 57.203125 16.597656 57.660156 16.511719 58.148438 16.511719 C 58.632812 16.511719 59.085938 16.597656 59.507812 16.773438 C 59.933594 16.945312 60.304688 17.1875 60.625 17.492188 C 60.949219 17.796875 61.203125 18.152344 61.386719 18.558594 C 61.566406 18.960938 61.65625 19.394531 61.65625 19.855469 L 61.65625 22.375 C 61.65625 22.839844 61.566406 23.273438 61.386719 23.675781 C 61.203125 24.082031 60.949219 24.433594 60.625 24.742188 C 60.304688 25.046875 59.933594 25.285156 59.507812 25.460938 C 59.085938 25.636719 58.632812 25.726562 58.148438 25.726562 Z M 58.148438 24.367188 C 58.546875 24.367188 58.90625 24.277344 59.234375 24.097656 C 59.558594 23.917969 59.820312 23.679688 60.015625 23.375 C 60.214844 23.074219 60.3125 22.742188 60.3125 22.375 L 60.3125 19.855469 C 60.3125 19.488281 60.214844 19.152344 60.015625 18.851562 C 59.820312 18.554688 59.558594 18.316406 59.234375 18.136719 C 58.90625 17.957031 58.546875 17.871094 58.148438 17.871094 C 57.75 17.871094 57.386719 17.957031 57.0625 18.136719 C 56.738281 18.316406 56.472656 18.554688 56.277344 18.851562 C 56.082031 19.152344 55.984375 19.488281 55.984375 19.855469 L 55.984375 22.375 C 55.984375 22.742188 56.082031 23.074219 56.277344 23.375 C 56.472656 23.679688 56.738281 23.917969 57.0625 24.097656 C 57.386719 24.277344 57.75 24.367188 58.148438 24.367188 Z M 58.148438 24.367188 " fill-opacity="1" fill-rule="nonzero"/><path fill="#000000" d="M 62.6875 25.839844 L 62.6875 17.023438 L 65.722656 17.023438 C 66.152344 17.023438 66.546875 17.09375 66.914062 17.230469 C 67.28125 17.367188 67.605469 17.558594 67.886719 17.804688 C 68.167969 18.046875 68.386719 18.328125 68.546875 18.652344 C 68.703125 18.972656 68.785156 19.316406 68.785156 19.679688 C 68.785156 20.078125 68.6875 20.453125 68.5 20.796875 C 68.308594 21.144531 68.054688 21.441406 67.726562 21.6875 C 67.398438 21.9375 67.027344 22.117188 66.601562 22.226562 L 68.269531 24.789062 C 68.371094 24.941406 68.402344 25.105469 68.363281 25.292969 C 68.328125 25.476562 68.230469 25.621094 68.074219 25.726562 C 67.957031 25.800781 67.832031 25.839844 67.703125 25.839844 C 67.46875 25.839844 67.277344 25.734375 67.132812 25.527344 L 65.136719 22.453125 C 65.109375 22.421875 65.089844 22.382812 65.078125 22.335938 L 64.046875 22.335938 L 64.046875 25.839844 Z M 64.046875 20.976562 L 65.722656 20.976562 C 66.039062 20.976562 66.324219 20.917969 66.578125 20.800781 C 66.832031 20.6875 67.039062 20.53125 67.191406 20.335938 C 67.347656 20.140625 67.425781 19.921875 67.425781 19.679688 C 67.425781 19.441406 67.347656 19.222656 67.191406 19.027344 C 67.039062 18.832031 66.832031 18.675781 66.578125 18.558594 C 66.324219 18.441406 66.039062 18.382812 65.722656 18.382812 L 64.046875 18.382812 Z M 64.046875 20.976562 " fill-opacity="1" fill-rule="nonzero"/><path fill="#000000" d="M 69.8125 25.714844 L 69.8125 16.910156 L 75.269531 16.910156 C 75.453125 16.910156 75.613281 16.976562 75.746094 17.109375 C 75.878906 17.238281 75.949219 17.402344 75.949219 17.589844 C 75.949219 17.777344 75.878906 17.9375 75.746094 18.070312 C 75.613281 18.203125 75.453125 18.269531 75.269531 18.269531 L 71.171875 18.269531 L 71.171875 19.957031 L 74.25 19.957031 C 74.441406 19.957031 74.601562 20.023438 74.734375 20.152344 C 74.863281 20.285156 74.929688 20.445312 74.929688 20.640625 C 74.929688 20.824219 74.863281 20.984375 74.734375 21.121094 C 74.601562 21.25 74.441406 21.316406 74.25 21.316406 L 71.171875 21.316406 L 71.171875 24.367188 L 75.269531 24.367188 C 75.453125 24.367188 75.613281 24.429688 75.746094 24.558594 C 75.878906 24.691406 75.949219 24.851562 75.949219 25.035156 C 75.949219 25.226562 75.878906 25.390625 75.746094 25.519531 C 75.613281 25.648438 75.453125 25.714844 75.269531 25.714844 Z M 69.8125 25.714844 " fill-opacity="1" fill-rule="nonzero"/></svg>